<svg width="84" height="84" viewBox="0 0 84 84" fill="none" xmlns="http://www.w3.org/2000/svg">
<g clip-path="url(#clip0)">
<path d="M30.5823 50.6133C27.8452 50.6133 25.6182 52.8403 25.6182 55.5775V77.9631H35.5472V55.5775C35.5472 52.8403 33.3201 50.6133 30.5823 50.6133Z" fill="white"/>
<path d="M75.8662 46.8393C76.7583 47.4359 77.7683 47.7217 78.7668 47.7217C80.4535 47.7217 82.1095 46.9066 83.1176 45.3986C84.7224 42.9985 84.0776 39.7519 81.6769 38.1471L51.5214 18.3366L55.3692 15.809C57.7693 14.2042 58.4146 10.9576 56.8099 8.55689C55.8018 7.04956 54.1458 6.23438 52.459 6.23438C51.4599 6.23438 50.4506 6.5202 49.5578 7.11685L42 12.0817L34.4423 7.11685C33.5495 6.5202 32.5402 6.23438 31.5417 6.23438C29.8543 6.23438 28.1989 7.04956 27.1902 8.55689C25.5854 10.9576 26.2308 14.2042 28.6309 15.809L32.4786 18.3366L2.32249 38.1471C-0.0775639 39.7519 -0.722279 42.9985 0.882459 45.3986C1.89055 46.9066 3.54656 47.7217 5.23333 47.7217C6.2318 47.7217 7.24181 47.4359 8.1339 46.8393L42 24.5915L75.8662 46.8393Z" fill="white"/>
<path d="M54.2178 50.6133C51.9697 50.6133 50.1406 52.4423 50.1406 54.6905C50.1406 56.9387 51.9697 58.7677 54.2178 58.7677C56.466 58.7677 58.2944 56.9387 58.2944 54.6905C58.2944 52.4423 56.466 50.6133 54.2178 50.6133Z" fill="white"/>
<path d="M73.1495 50.9435L42 30.4805C42 30.4805 10.5602 51.1299 10.4141 51.2165V77.9632H20.6962V55.5776C20.6962 50.1263 25.131 45.6915 30.5822 45.6915C36.0341 45.6915 40.4689 50.127 40.4689 55.5776V77.9632H73.2514V51.0088C73.2174 50.987 73.1828 50.9659 73.1495 50.9435ZM54.2175 63.6897C49.2553 63.6897 45.2184 59.6529 45.2184 54.6906C45.2184 49.729 49.2553 45.6915 54.2175 45.6915C59.1791 45.6915 63.216 49.729 63.216 54.6906C63.216 59.6529 59.1791 63.6897 54.2175 63.6897Z" fill="white"/>
</g>
<defs>
<clipPath id="clip0">
<rect width="84" height="84" fill="white"/>
</clipPath>
</defs>
</svg>
