<svg width="16" height="16" viewBox="0 0 16 16" fill="none" xmlns="http://www.w3.org/2000/svg">
<path d="M8 1C5.79688 1 4 2.79688 4 5V6H3.5C2.67578 6 2 6.67578 2 7.5V12.5C2 13.3242 2.67578 14 3.5 14H12.5C13.3242 14 14 13.3242 14 12.5V7.5C14 6.67578 13.3242 6 12.5 6H12V5C12 2.79688 10.2031 1 8 1ZM8 2C9.66406 2 11 3.33594 11 5V6H5V5C5 3.33594 6.33594 2 8 2ZM3.5 7H12.5C12.7812 7 13 7.21875 13 7.5V12.5C13 12.7812 12.7812 13 12.5 13H3.5C3.21875 13 3 12.7812 3 12.5V7.5C3 7.21875 3.21875 7 3.5 7Z" fill="#C4CFDA"/>
</svg>
