<svg width="92" height="80" viewBox="0 0 92 80" fill="none" xmlns="http://www.w3.org/2000/svg">
<g clip-path="url(#clip0)">
<path d="M68.4633 60.1131C61.3333 59.1881 54.05 53.1757 46.3833 42.0761C46.6133 41.8448 46.92 41.6136 47.4567 41.4594C52.2867 38.6845 54.74 35.37 54.74 31.4388C54.74 28.5098 53.59 26.2744 51.29 24.8099C49.45 23.5766 46.92 22.9599 43.7 22.8058L29.1333 22.9599C33.9633 23.1912 37.1067 30.1285 37.4133 30.8222L37.49 26.4286C37.49 26.1973 37.49 25.9661 37.5667 25.8119C37.72 25.1182 38.9467 24.8099 41.17 24.8099C43.93 24.8099 45.9233 25.3494 47.2267 26.5057C48.53 27.5848 49.1433 29.4347 49.1433 31.9013C49.1433 34.3679 48.3767 36.4491 46.92 38.1449C45.3867 39.8407 43.01 40.6886 39.79 40.6886H37.5667C39.0233 40.8428 40.4033 42.0761 41.2467 43.001C41.2467 43.001 41.2467 43.0781 41.3233 43.0781C41.7833 43.6177 42.09 43.926 42.09 43.926C44.5433 46.9322 47.61 50.7862 51.2133 55.4111C54.05 58.8027 57.4233 60.4214 61.18 60.4214L70.5333 60.3443L68.4633 60.1131ZM40.48 18.0267H51.52L54.2033 8.54573C54.2033 8.54573 50.4467 14.8664 48.6833 15.8684C46.92 16.8705 44.7733 17.2559 42.7033 11.3207L40.48 5L38.3333 11.3207C36.2633 17.2559 34.1933 16.8705 32.3533 15.8684C30.59 14.8664 26.8333 8.54573 26.8333 8.54573L29.5167 18.0267H40.48ZM4.6 79.8458H0V70.9044H0.996657V78.9209H4.6V79.8458ZM13.2633 75.5293C13.2633 74.0648 13.6467 72.9856 14.4133 72.1377C15.18 71.2898 16.2533 70.8273 17.5567 70.8273C18.7833 70.8273 19.78 71.2898 20.5467 72.0606C21.3133 72.9085 21.6967 73.9877 21.6967 75.298C21.6967 76.7626 21.3133 77.8417 20.5467 78.7667C19.78 79.6146 18.7833 80.0771 17.48 80.0771C16.2533 80.0771 15.2567 79.6146 14.49 78.8438C13.6467 77.9188 13.2633 76.8397 13.2633 75.5293ZM14.3367 75.4522C14.3367 76.5313 14.6433 77.4563 15.18 78.073C15.7167 78.7667 16.4833 79.075 17.4033 79.075C18.4 79.075 19.1667 78.7667 19.78 78.073C20.3167 77.3792 20.6233 76.5313 20.6233 75.3751C20.6233 74.2189 20.3167 73.2939 19.78 72.6002C19.2433 71.9065 18.4767 71.5982 17.48 71.5982C16.4833 71.5982 15.7167 71.9836 15.18 72.6773C14.5667 73.4481 14.3367 74.3731 14.3367 75.4522ZM38.9467 79.8458H37.72L33.0433 72.6773C32.9667 72.5231 32.89 72.369 32.7367 72.1377C32.7367 72.369 32.8133 72.7544 32.8133 73.371V79.9229H31.8167V70.9044H33.12L37.6433 77.9959C37.8733 78.3042 37.95 78.5355 38.0267 78.6125C37.95 78.3042 37.95 77.8417 37.95 77.3022V70.9044H38.9467V79.8458ZM49.68 79.8458V70.9044H52.0567C55.2 70.9044 56.7333 72.369 56.7333 75.221C56.7333 76.6084 56.2733 77.6876 55.3533 78.5355C54.4333 79.3834 53.2833 79.7688 51.9033 79.7688H49.68V79.8458ZM50.6 71.8294V78.9209H51.98C53.13 78.9209 54.05 78.6125 54.74 77.9959C55.43 77.3792 55.7367 76.4543 55.7367 75.298C55.7367 72.9856 54.51 71.8294 52.0567 71.8294H50.6ZM66.3167 75.5293C66.3167 74.0648 66.7 72.9856 67.4667 72.1377C68.2333 71.2898 69.3067 70.8273 70.61 70.8273C71.8367 70.8273 72.8333 71.2898 73.6 72.0606C74.3667 72.9085 74.75 73.9877 74.75 75.298C74.75 76.7626 74.3667 77.8417 73.6 78.7667C72.8333 79.6146 71.8367 80.0771 70.5333 80.0771C69.3067 80.0771 68.2333 79.6146 67.5433 78.8438C66.7 77.9188 66.3167 76.8397 66.3167 75.5293ZM67.39 75.4522C67.39 76.5313 67.6967 77.4563 68.2333 78.073C68.77 78.7667 69.5367 79.075 70.5333 79.075C71.53 79.075 72.2967 78.7667 72.91 78.073C73.4467 77.3792 73.7533 76.5313 73.7533 75.3751C73.7533 74.2189 73.4467 73.2939 72.91 72.6002C72.3733 71.9065 71.6067 71.5982 70.61 71.5982C69.6133 71.5982 68.8467 71.9836 68.31 72.6773C67.62 73.4481 67.39 74.3731 67.39 75.4522ZM92 79.8458H90.7733L86.0967 72.6773C86.02 72.5231 85.9433 72.369 85.79 72.1377C85.79 72.369 85.8667 72.7544 85.8667 73.371V79.9229H84.87V70.9044H86.1733L90.6967 77.9959C90.9267 78.3042 91.0033 78.5355 91.08 78.6125C91.0033 78.3042 91.0033 77.8417 91.0033 77.3022V70.9044H92V79.8458Z" fill="white"/>
<path d="M4.6 79.8458H0V70.9044H0.996657V78.9208H4.6V79.8458ZM13.2633 75.5292C13.2633 74.0647 13.6467 72.9855 14.4133 72.1376C15.18 71.2898 16.2533 70.8273 17.5567 70.8273C18.7833 70.8273 19.78 71.2898 20.5467 72.0606C21.3133 72.9085 21.6967 73.9876 21.6967 75.298C21.6967 76.7625 21.3133 77.8417 20.5467 78.7666C19.78 79.6145 18.7833 80.077 17.48 80.077C16.2533 80.077 15.2567 79.6145 14.49 78.8437C13.6467 77.9187 13.2633 76.8396 13.2633 75.5292ZM14.3367 75.4521C14.3367 76.5313 14.6433 77.4563 15.18 78.0729C15.7167 78.7666 16.4833 79.075 17.4033 79.075C18.4 79.075 19.1667 78.7666 19.78 78.0729C20.3167 77.3792 20.6233 76.5313 20.6233 75.3751C20.6233 74.2188 20.3167 73.2939 19.78 72.6001C19.2433 71.9064 18.4767 71.5981 17.48 71.5981C16.4833 71.5981 15.7167 71.9835 15.18 72.6772C14.5667 73.448 14.3367 74.373 14.3367 75.4521ZM38.9467 79.8458H37.72L33.0433 72.6772C32.9667 72.5231 32.89 72.3689 32.7367 72.1376C32.7367 72.3689 32.8133 72.7543 32.8133 73.3709V79.9228H31.8167V70.9044H33.12L37.6433 77.9958C37.8733 78.3041 37.95 78.5354 38.0267 78.6125C37.95 78.3041 37.95 77.8417 37.95 77.3021V70.9044H38.9467V79.8458ZM49.68 79.8458V70.9044H52.0567C55.2 70.9044 56.7333 72.3689 56.7333 75.2209C56.7333 76.6084 56.2733 77.6875 55.3533 78.5354C54.4333 79.3833 53.2833 79.7687 51.9033 79.7687H49.68V79.8458ZM50.6 71.8293V78.9208H51.98C53.13 78.9208 54.05 78.6125 54.74 77.9958C55.43 77.3792 55.7367 76.4542 55.7367 75.298C55.7367 72.9855 54.51 71.8293 52.0567 71.8293H50.6ZM66.3167 75.5292C66.3167 74.0647 66.7 72.9855 67.4667 72.1376C68.2333 71.2898 69.3067 70.8273 70.61 70.8273C71.8367 70.8273 72.8333 71.2898 73.6 72.0606C74.3667 72.9085 74.75 73.9876 74.75 75.298C74.75 76.7625 74.3667 77.8417 73.6 78.7666C72.8333 79.6145 71.8367 80.077 70.5333 80.077C69.3067 80.077 68.2333 79.6145 67.5433 78.8437C66.7 77.9187 66.3167 76.8396 66.3167 75.5292ZM67.39 75.4521C67.39 76.5313 67.6967 77.4563 68.2333 78.0729C68.77 78.7666 69.5367 79.075 70.5333 79.075C71.53 79.075 72.2967 78.7666 72.91 78.0729C73.4467 77.3792 73.7533 76.5313 73.7533 75.3751C73.7533 74.2188 73.4467 73.2939 72.91 72.6001C72.3733 71.9064 71.6067 71.5981 70.61 71.5981C69.6133 71.5981 68.8467 71.9835 68.31 72.6772C67.62 73.448 67.39 74.373 67.39 75.4521ZM92 79.8458H90.7733L86.0967 72.6772C86.02 72.5231 85.9433 72.3689 85.79 72.1376C85.79 72.3689 85.8667 72.7543 85.8667 73.3709V79.9228H84.87V70.9044H86.1733L90.6967 77.9958C90.9267 78.3041 91.0033 78.5354 91.08 78.6125C91.0033 78.3041 91.0033 77.8417 91.0033 77.3021V70.9044H92V79.8458Z" fill="white"/>
</g>
<path d="M61.6922 9.882C61.6922 9.114 61.8182 8.436 62.0702 7.848C62.3342 7.248 62.6822 6.744 63.1142 6.336C63.5582 5.928 64.0682 5.622 64.6442 5.418C65.2322 5.202 65.8502 5.094 66.4982 5.094C67.1702 5.094 67.7942 5.202 68.3702 5.418C68.9582 5.622 69.4682 5.928 69.9002 6.336C70.3322 6.744 70.6742 7.248 70.9262 7.848C71.1782 8.436 71.3042 9.114 71.3042 9.882C71.3042 10.662 71.1722 11.352 70.9082 11.952C70.6562 12.54 70.3082 13.038 69.8642 13.446C69.4322 13.854 68.9222 14.166 68.3342 14.382C67.7582 14.586 67.1462 14.688 66.4982 14.688C65.8262 14.688 65.1962 14.586 64.6082 14.382C64.0322 14.166 63.5282 13.854 63.0962 13.446C62.6642 13.038 62.3222 12.54 62.0702 11.952C61.8182 11.352 61.6922 10.662 61.6922 9.882ZM62.5382 9.882C62.5382 10.506 62.6402 11.07 62.8442 11.574C63.0602 12.066 63.3482 12.492 63.7082 12.852C64.0682 13.2 64.4882 13.47 64.9682 13.662C65.4482 13.842 65.9582 13.932 66.4982 13.932C67.0622 13.932 67.5842 13.842 68.0642 13.662C68.5562 13.47 68.9762 13.2 69.3242 12.852C69.6842 12.504 69.9602 12.084 70.1522 11.592C70.3562 11.088 70.4582 10.518 70.4582 9.882C70.4582 9.258 70.3502 8.7 70.1342 8.208C69.9302 7.704 69.6482 7.278 69.2882 6.93C68.9282 6.582 68.5082 6.312 68.0282 6.12C67.5482 5.928 67.0382 5.838 66.4982 5.85C65.9222 5.838 65.3942 5.928 64.9142 6.12C64.4342 6.312 64.0142 6.582 63.6542 6.93C63.3062 7.278 63.0302 7.704 62.8262 8.208C62.6342 8.7 62.5382 9.258 62.5382 9.882ZM65.8862 11.844C66.0422 11.856 66.1682 11.88 66.2642 11.916C66.3722 11.94 66.4682 11.97 66.5522 12.006V12.438H64.3202V12.006C64.5242 11.934 64.7342 11.88 64.9502 11.844V7.65C64.8182 7.638 64.7042 7.62 64.6082 7.596C64.5122 7.56 64.4162 7.512 64.3202 7.452V7.056H65.0042C65.2202 7.056 65.4782 7.044 65.7782 7.02C66.0782 6.996 66.3242 6.984 66.5162 6.984C66.7802 6.984 67.0322 7.014 67.2722 7.074C67.5242 7.122 67.7462 7.212 67.9382 7.344C68.1302 7.464 68.2802 7.62 68.3882 7.812C68.4962 8.004 68.5502 8.232 68.5502 8.496C68.5502 8.868 68.4182 9.162 68.1542 9.378C67.9022 9.594 67.6082 9.756 67.2722 9.864C67.4882 10.212 67.6922 10.554 67.8842 10.89C68.0882 11.214 68.3642 11.532 68.7122 11.844L69.1262 12.06V12.438H68.2262L67.7222 12.24C67.4222 11.88 67.1822 11.508 67.0022 11.124C66.8222 10.74 66.6662 10.374 66.5342 10.026H65.8862V11.844ZM66.4262 7.56C66.2942 7.56 66.1862 7.566 66.1022 7.578C66.0302 7.578 65.9582 7.59 65.8862 7.614V9.504H66.4622C67.1822 9.504 67.5302 9.168 67.5062 8.496C67.4942 8.184 67.3862 7.95 67.1822 7.794C66.9902 7.638 66.7382 7.56 66.4262 7.56Z" fill="white"/>
<defs>
<clipPath id="clip0">
<rect width="92" height="75" fill="white" transform="translate(0 5)"/>
</clipPath>
</defs>
</svg>
