<svg width="160" height="44" viewBox="0 0 160 44" fill="none" xmlns="http://www.w3.org/2000/svg">
<path fill-rule="evenodd" clip-rule="evenodd" d="M32.7187 43.0733C27.1395 42.3168 21.3712 37.6359 15.4137 28.9835C15.5556 28.7943 15.8392 28.6525 16.2648 28.5106C20.0473 26.3357 21.9858 23.7352 21.9858 20.7092C21.9858 18.3924 21.0875 16.6903 19.2908 15.5083C17.8251 14.5627 15.8392 14.0426 13.3333 13.948L1.79669 14.0426C5.62648 14.2317 8.03783 19.669 8.27423 20.1891L8.32152 16.7376C8.32152 16.5485 8.32152 16.4066 8.3688 16.2648C8.51064 15.7447 9.40899 15.461 11.1584 15.461C13.3333 15.461 14.8936 15.8865 15.8865 16.7849C16.8794 17.6359 17.3995 19.0544 17.3995 20.9929C17.3995 22.9314 16.8322 24.539 15.6501 25.8629C14.4681 27.1868 12.5768 27.8487 10.0236 27.8487H8.41608C9.55083 27.9433 10.6383 28.9362 11.3002 29.6454L11.3475 29.7872C11.7258 30.1655 11.9149 30.4965 11.9149 30.4965C13.8534 32.8605 16.2175 35.8393 19.0544 39.4799C21.2766 42.1277 23.9244 43.4043 26.9031 43.4043L34.2317 43.357L32.7187 43.0733ZM10.7329 10.2128H19.3853L21.4657 2.7896C21.4657 2.7896 18.5343 7.75414 17.1158 8.51064C15.6974 9.26714 14.0898 9.59811 12.435 4.96454L10.7329 0L9.03074 4.91726C7.42317 9.59811 5.76832 9.26714 4.34988 8.46336C2.93144 7.70686 0 2.74232 0 2.74232L2.08038 10.1655H10.7329V10.2128Z" fill="white"/>
<path fill-rule="evenodd" clip-rule="evenodd" d="M64.7282 37.7776C60.2365 37.163 55.5556 33.3805 50.6857 26.3355C50.8275 26.1937 51.0639 26.0519 51.3949 25.9573C54.4682 24.2079 56.0285 22.0802 56.0285 19.6216C56.0285 17.7776 55.272 16.3592 53.8535 15.4136C53.0024 14.8462 51.915 14.4679 50.6384 14.2788C50.1183 14.1842 49.5982 14.137 49.0308 14.137L44.35 14.1842L39.7637 14.2315V14.2788C40.4256 14.3734 40.8984 14.7043 41.2767 15.2717C41.6549 15.8391 41.7968 16.5956 41.7968 17.5885V17.6358H41.8441L41.7968 34.6571C41.7968 34.8935 41.7968 35.0826 41.7495 35.2244V35.3663C41.5604 36.9738 40.8984 37.8249 39.7637 37.9668V38.014L42.9788 37.9668H43.7826H44.35L47.045 38.014H47.0923V37.9668C46.4303 37.8722 45.9575 37.5412 45.5793 36.9738C45.201 36.4065 45.0592 35.65 45.0592 34.6571L44.9646 27.1866C45.5793 27.0448 46.3831 26.9975 47.4705 26.9975C48.4162 28.1322 49.4563 29.4088 50.6857 30.9691C51.6313 32.1511 52.6715 33.475 53.7589 34.8935C55.5556 37.0211 57.6833 38.0613 60.1419 38.0613L66.0994 38.014L64.7282 37.7776ZM46.3358 25.5318H44.8228L44.9173 16.4537C44.9173 16.3119 44.9173 16.1701 44.9646 16.0755C45.0592 15.65 45.8157 15.4608 47.2341 15.4608C48.6526 15.4608 49.7873 15.6972 50.5438 16.1701C50.7329 16.2646 50.9221 16.4065 51.0639 16.5483C51.8677 17.2575 52.2932 18.3923 52.2932 19.9526C52.2932 21.5129 51.8204 22.8367 50.8748 23.9242C50.7802 24.0188 50.6857 24.1133 50.5438 24.2079C49.6455 25.1062 48.227 25.5318 46.3358 25.5318Z" fill="white"/>
<path fill-rule="evenodd" clip-rule="evenodd" d="M141.608 34.2314C141.608 35.3661 142.269 36.0281 143.593 36.3118C143.924 36.359 145.059 36.4063 146.998 36.4063C147.896 36.4063 148.7 36.3117 149.362 36.1699C150.827 35.7444 151.962 35.2716 152.671 34.7987C153.381 34.2787 153.853 33.7113 154.043 33.0493L154.09 33.0966L153.333 37.9193L153.286 38.1557L153.002 38.1084C152.813 38.1557 152.577 38.1557 152.199 38.1557C150.307 38.0612 147.896 38.0139 144.965 38.0139C142.837 38.0139 139.953 38.0139 136.359 38.0612V38.0139C137.021 37.9193 137.494 37.5883 137.872 37.021C138.251 36.4536 138.392 35.6971 138.392 34.7042L138.44 21.9382H138.392V17.6356H138.345V17.5883C138.345 16.5954 138.156 15.8389 137.825 15.2716C137.447 14.7042 136.974 14.3732 136.312 14.2786V14.1841H143.735V14.2314C143.073 14.3259 142.6 14.7042 142.222 15.3188C141.844 15.9335 141.655 17.021 141.608 18.4867V34.2314Z" fill="white"/>
<path fill-rule="evenodd" clip-rule="evenodd" d="M129.929 38.0615C129.74 38.0615 129.504 38.1087 129.173 38.1087C127.281 38.0142 124.87 37.9669 121.939 37.9669C119.811 37.9669 116.927 37.9669 113.333 38.0142V37.9669C113.995 37.8723 114.468 37.5414 114.846 36.974C115.225 36.4066 115.367 35.6501 115.367 34.6572L115.414 17.6832H115.367V17.6359C115.367 16.643 115.177 15.8865 114.846 15.3191C114.468 14.7518 113.995 14.4208 113.333 14.3262V14.279L120.142 14.2317C121.986 14.2317 123.688 14.1844 125.248 14.1371H125.485C126.572 14.1371 127.612 14.0426 128.558 13.9953C129.362 13.948 129.74 13.9953 129.74 14.1371V14.7518L129.787 18.0142H129.74C129.693 17.6832 129.551 17.3995 129.362 17.1631C129.173 16.9267 128.842 16.6903 128.416 16.5012C127.991 16.3121 127.376 16.1702 126.62 16.0756C125.863 15.9811 124.917 15.8865 123.735 15.8392C122.695 15.792 121.229 15.792 119.433 15.792C119.055 15.792 118.771 15.8392 118.629 15.9811C118.582 16.0756 118.534 16.2648 118.534 16.5485V24.1608C118.534 24.4444 118.724 24.5863 119.055 24.5863C119.716 24.5863 122.033 24.5863 126.099 24.6336C127.092 24.6336 127.802 24.3972 128.274 23.9243C128.7 23.4515 128.984 22.9314 129.078 22.2695H129.125C129.078 23.2151 129.125 25.2482 129.173 28.2742H129.125C129.031 27.6123 128.7 27.1395 128.133 26.7612C127.565 26.383 126.809 26.2411 125.816 26.2411C124.255 26.1466 121.939 26.0993 118.913 26.1466C118.676 26.1466 118.582 26.2411 118.582 26.383V34.3262C118.582 35.461 119.244 36.1229 120.568 36.4066C120.899 36.4539 122.033 36.5012 123.972 36.5012C124.87 36.5012 125.674 36.4066 126.336 36.2648C127.802 35.8392 128.936 35.3664 129.646 34.8936C130.355 34.3735 130.78 33.8061 131.017 33.1442L131.064 33.1915L130.307 38.0142L130.26 38.2506L129.929 38.0615Z" fill="white"/>
<path fill-rule="evenodd" clip-rule="evenodd" d="M106.336 27.6597C105.957 28.227 105.816 28.9835 105.816 29.9764V34.8464C105.816 35.5556 104.87 36.3121 103.026 37.1632C100.898 38.0616 98.5816 38.4871 95.9338 38.4871C92.1513 38.4871 88.9835 37.3523 86.4303 35.0828C83.8298 32.766 82.5532 29.8346 82.5532 26.2412V26.0048C82.6005 22.4587 83.9244 19.48 86.5249 17.1159C89.078 14.7519 92.1513 13.5698 95.792 13.5698C98.3452 13.5698 100.52 13.9008 102.27 14.5155C103.31 14.8937 104.019 15.272 104.397 15.6029L104.586 15.792C104.634 15.8866 104.681 15.9812 104.681 16.0757C104.823 16.9741 104.87 18.0143 104.87 19.149C104.87 20.2838 104.823 20.8511 104.728 20.9457H104.634C104.586 20.662 104.444 20.2838 104.255 19.8582C104.066 19.4327 103.735 19.0072 103.357 18.5816C102.931 18.1088 102.411 17.6833 101.797 17.2105C101.182 16.7377 100.426 16.3121 99.5272 15.9339C98.5343 15.5084 97.2577 15.272 95.6502 15.272C92.9551 15.272 90.7802 16.1703 89.078 17.967C87.2341 19.9055 86.3357 22.5533 86.3357 25.9103V26.0048C86.383 29.2199 87.3286 31.8204 89.2199 33.8062C91.1111 35.7921 93.5225 36.785 96.4539 36.785C97.9669 36.785 99.3854 36.5013 100.709 35.9812C101.939 35.4611 102.553 34.941 102.553 34.4209L102.459 29.9764C102.459 28.9835 102.27 28.227 101.939 27.6597C101.56 27.0923 101.088 26.7613 100.426 26.6668V26.6195H107.754V26.6668C107.187 26.7613 106.714 27.0923 106.336 27.6597Z" fill="white"/>
<path fill-rule="evenodd" clip-rule="evenodd" d="M77.494 13.9007C76.8321 13.948 76.2647 14.1371 75.8392 14.5154C75.4137 14.8936 74.9881 15.3192 74.6571 15.8865V34.6099C74.6571 35.3192 74.8463 35.8865 75.2245 36.3594C75.4609 36.7376 75.7919 37.0686 76.1702 37.305C76.5484 37.5887 76.9739 37.7305 77.494 37.8251L77.5413 37.9196C77.4468 38.0142 77.1158 38.0142 76.5957 38.0142C73.3806 37.8724 70.9219 37.8724 69.1725 38.0142C68.7943 38.0142 68.5579 37.9669 68.416 37.8724C69.2671 37.7778 69.9763 37.4941 70.5437 36.974C71.1111 36.4539 71.442 35.792 71.4893 35.0828V17.0213C71.4893 16.5012 71.3947 16.0757 71.2056 15.6974C71.0165 15.2246 70.7328 14.7518 70.4018 14.4208C70.0709 14.0426 69.6926 13.9007 69.3144 13.9007C69.5035 13.8534 70.9219 13.8062 73.5224 13.8062C76.0756 13.8062 77.3995 13.8062 77.494 13.9007Z" fill="white"/>
<path d="M155.555 11.442V12.8131H156.596C156.832 12.8131 157.021 12.7658 157.163 12.624C157.305 12.4821 157.399 12.3403 157.399 12.1039C157.399 11.8675 157.305 11.6784 157.163 11.5838C157.021 11.4892 156.832 11.442 156.643 11.442H155.555ZM156.454 13.3805H155.555V15.2245H154.941V10.9219H156.69C157.068 10.9219 157.352 11.0164 157.588 11.2528C157.825 11.4892 157.967 11.7729 157.967 12.1039C157.967 12.3876 157.872 12.624 157.73 12.8604C157.541 13.0495 157.352 13.1914 157.068 13.2859L158.061 15.2245H157.352L156.454 13.3805ZM159.385 13.0968C159.385 12.624 159.291 12.2457 159.149 11.8202C159.007 11.442 158.771 11.111 158.487 10.8273C158.203 10.5436 157.872 10.3072 157.494 10.1654C157.116 9.97623 156.69 9.92895 156.265 9.92895C155.839 9.92895 155.414 10.0235 155.035 10.1654C154.657 10.3545 154.326 10.5436 154.042 10.8273C153.759 11.111 153.57 11.442 153.38 11.8202C153.239 12.1985 153.144 12.624 153.144 13.0968C153.144 13.5696 153.239 13.9479 153.38 14.3734C153.522 14.7516 153.759 15.0826 154.042 15.3663C154.326 15.65 154.657 15.8864 155.035 16.0282C155.414 16.1701 155.839 16.2646 156.265 16.2646C156.69 16.2646 157.116 16.1701 157.494 16.0282C157.872 15.8864 158.203 15.65 158.487 15.3663C158.771 15.0826 158.96 14.7516 159.149 14.3734C159.291 13.9479 159.385 13.5223 159.385 13.0968ZM160 13.0968C160 13.6169 159.905 14.137 159.716 14.5625C159.527 15.0353 159.291 15.4136 158.96 15.7446C158.629 16.0755 158.25 16.3119 157.778 16.5011C157.305 16.6902 156.832 16.7847 156.312 16.7847C155.792 16.7847 155.319 16.6902 154.846 16.5011C154.421 16.3119 153.995 16.0755 153.664 15.7446C153.333 15.4136 153.049 15.0353 152.86 14.5625C152.671 14.0897 152.577 13.6169 152.577 13.0968C152.577 12.5767 152.671 12.0566 152.86 11.6311C153.049 11.1583 153.333 10.78 153.664 10.449C153.995 10.1181 154.373 9.83439 154.846 9.64526C155.272 9.45614 155.792 9.36157 156.312 9.36157C156.832 9.36157 157.305 9.45614 157.778 9.64526C158.25 9.83439 158.629 10.1181 158.96 10.449C159.291 10.78 159.527 11.1583 159.716 11.6311C159.905 12.0566 160 12.5294 160 13.0968Z" fill="white"/>
</svg>
