<svg width="84" height="84" viewBox="0 0 84 84" fill="none" xmlns="http://www.w3.org/2000/svg">
<path d="M81.1999 47.6001H64.4C62.8544 47.6001 61.6 48.8545 61.6 50.4001C61.6 51.9457 62.8544 53.2001 64.4 53.2001H74.1496L55.5744 69.4512L34.8545 59.0913C34.0369 58.6881 33.0681 58.6993 32.2617 59.1416L1.46187 75.9416C0.101075 76.6808 -0.397323 78.3832 0.341874 79.7384C0.851472 80.6736 1.80907 81.2 2.80026 81.2C3.25386 81.2 3.71306 81.088 4.13866 80.8528L33.6561 64.7584L54.7456 75.3032C55.7648 75.8016 56.98 75.656 57.8424 74.9056L78.3999 56.9185V67.2C78.3999 68.7456 79.6543 70 81.1999 70C82.7455 70 83.9999 68.7456 83.9999 67.2V50.4001C83.9999 48.8545 82.7455 47.6001 81.1999 47.6001Z" fill="white"/>
<path d="M30.8004 2.80029C13.7876 2.80029 0.000488281 16.5874 0.000488281 33.6002C0.000488281 45.6345 6.92206 56.0281 16.9796 61.096L29.574 54.2249C31.954 52.9201 34.8603 52.8529 37.3355 54.0737L47.7683 59.2929C56.101 53.7769 61.6002 44.3353 61.6002 33.6002C61.6002 16.5874 47.8131 2.80029 30.8004 2.80029ZM30.8004 30.8002C35.4315 30.8002 39.2003 34.569 39.2003 39.2001C39.2003 42.8457 36.8539 45.9257 33.6003 47.0849V50.4001C33.6003 51.9457 32.346 53.2001 30.8004 53.2001C29.2548 53.2001 28.0004 51.9457 28.0004 50.4001V47.6001H25.2004C23.6548 47.6001 22.4004 46.3457 22.4004 44.8001C22.4004 43.2545 23.6548 42.0001 25.2004 42.0001H30.8004C32.346 42.0001 33.6003 40.7457 33.6003 39.2001C33.6003 37.6545 32.346 36.4002 30.8004 36.4002C26.1692 36.4002 22.4004 32.6314 22.4004 28.0002C22.4004 24.3546 24.7468 21.2746 28.0004 20.1154V16.8002C28.0004 15.2546 29.2548 14.0002 30.8004 14.0002C32.346 14.0002 33.6003 15.2546 33.6003 16.8002V19.6002H36.4003C37.9459 19.6002 39.2003 20.8546 39.2003 22.4002C39.2003 23.9458 37.9459 25.2002 36.4003 25.2002H30.8004C29.2548 25.2002 28.0004 26.4546 28.0004 28.0002C28.0004 29.5458 29.2548 30.8002 30.8004 30.8002Z" fill="white"/>
</svg>
