<svg width="64" height="64" viewBox="0 0 64 64" fill="none" xmlns="http://www.w3.org/2000/svg">
<g clip-path="url(#clip0)">
<path d="M50.4249 8.71447L19.3069 23.3437V32.7379L13.8784 30.3241V20.9299L44.9964 6.30077L34.5445 1.65356C33.145 1.03133 30.855 1.03133 29.4555 1.65356L3.71839 13.0972C1.66799 14.0089 -0.00521654 16.5907 1.22216e-05 18.8346L0.0633848 45.6617C0.0687181 47.9295 1.77925 50.5141 3.86448 51.4056L29.5341 62.3789C30.8879 62.9576 33.1032 62.9576 34.457 62.3792L60.1354 51.4055C62.2206 50.5144 63.9312 47.93 63.9365 45.6623L64 18.8346C64.0053 16.5907 62.3321 14.0089 60.2816 13.0972L50.4249 8.71447ZM58.1854 30.1881L56.6792 30.887L56.6487 41.486C56.6473 41.9492 56.2382 42.5005 55.7361 42.7172L53.4811 43.6907C52.9868 43.9041 52.5869 43.7063 52.5866 43.2491L52.5789 32.7893L51.12 33.4662C50.4338 33.7845 50.0043 33.2853 50.345 32.5667L53.8324 25.2092C54.1844 24.4665 55.067 24.0381 55.4202 24.4409L58.9989 28.5206C59.3561 28.9278 58.9027 29.8555 58.1854 30.1881ZM43.461 47.2096C43.4649 47.6533 43.0898 48.1759 42.6243 48.3769L40.5332 49.2796C40.0747 49.4776 39.6996 49.2826 39.6943 48.8446L39.5719 38.8235L38.2189 39.4512C37.5825 39.7464 37.1765 39.2621 37.4862 38.5786L40.6559 31.5845C40.9756 30.879 41.793 30.4822 42.1264 30.8729L45.5043 34.8296C45.8417 35.2246 45.4299 36.1056 44.7658 36.4136L43.371 37.0607L43.461 47.2096ZM60.6746 44.2999C60.6731 44.5327 60.4638 44.8087 60.2074 44.9165L36.3229 54.9505C36.1001 55.0442 35.9168 54.946 35.9135 54.7313L35.8952 53.564C35.8919 53.3488 36.0699 53.0973 36.2931 53.0023L60.2201 42.8096C60.4769 42.7002 60.6842 42.8006 60.6827 43.0341L60.6746 44.2999Z" fill="#439BFF"/>
</g>
<defs>
<clipPath id="clip0">
<rect width="64" height="64" fill="white"/>
</clipPath>
</defs>
</svg>
