<svg width="64" height="64" viewBox="0 0 64 64" fill="none" xmlns="http://www.w3.org/2000/svg">
<path d="M22.75 20.625C21.7153 20.625 20.875 21.4653 20.875 22.5V28.25H32.125V22.5C32.125 21.4653 31.2847 20.625 30.25 20.625H22.75Z" fill="#439BFF"/>
<path d="M26.5 9.375C25.4653 9.375 24.625 10.2153 24.625 11.25C24.625 12.2847 25.4653 13.125 26.5 13.125C27.5347 13.125 28.375 12.2847 28.375 11.25C28.375 10.2153 27.5347 9.375 26.5 9.375Z" fill="#439BFF"/>
<path d="M13.375 0C10.2622 0 7.75 2.51221 7.75 5.625V52.75C10.7734 52.75 34.6738 52.75 34 52.75C34 53.1274 34 58.7524 34 58.375C34 61.4814 36.5186 64 39.625 64C42.7314 64 45.25 61.4814 45.25 58.375C45.25 56.9575 45.25 5.69629 45.25 2.8125C45.25 1.80225 45.4985 0.855957 45.9082 0C27.7246 0 31.9692 0 13.375 0ZM30.25 47H15.25C14.2139 47 13.375 46.1611 13.375 45.125C13.375 44.0889 14.2139 43.25 15.25 43.25H30.25C31.2861 43.25 32.125 44.0889 32.125 45.125C32.125 46.1611 31.2861 47 30.25 47ZM30.25 39.5H15.25C14.2139 39.5 13.375 38.6611 13.375 37.625C13.375 36.5889 14.2139 35.75 15.25 35.75H30.25C31.2861 35.75 32.125 36.5889 32.125 37.625C32.125 38.6611 31.2861 39.5 30.25 39.5ZM37.7466 47C36.7109 47 35.8716 46.1606 35.8716 45.125C35.8716 44.0894 36.7109 43.25 37.7466 43.25C38.7822 43.25 39.6216 44.0894 39.6216 45.125C39.6216 46.1606 38.7822 47 37.7466 47ZM37.7466 35.75C38.7822 35.75 39.6216 36.5894 39.6216 37.625C39.6216 38.6606 38.7822 39.5 37.7466 39.5C36.7109 39.5 35.8716 38.6606 35.8716 37.625C35.8716 36.5894 36.7109 35.75 37.7466 35.75ZM35.875 22.5V30.125C35.875 31.1611 35.0361 32 34 32H19C17.9639 32 17.125 31.1611 17.125 30.125V22.5C17.125 19.3984 19.6484 16.875 22.75 16.875H26.5C23.3984 16.875 20.875 14.3516 20.875 11.25C20.875 8.14844 23.3984 5.625 26.5 5.625C29.6016 5.625 32.125 8.14844 32.125 11.25C32.125 14.3516 29.6016 16.875 26.5 16.875H30.25C33.3516 16.875 35.875 19.3984 35.875 22.5Z" fill="#439BFF"/>
<path d="M62.125 18.75H58.375V42.3125C58.375 43.8657 59.6343 45.125 61.1875 45.125C62.7407 45.125 64 43.8657 64 42.3125V20.625C64 19.5894 63.1606 18.75 62.125 18.75Z" fill="#439BFF"/>
<path d="M54.625 2.8125C54.625 1.25928 53.3657 0 51.8125 0C50.2593 0 49 1.25928 49 2.8125V45.125C49.502 45.125 55.6684 45.125 55.2832 45.125C54.8735 44.269 54.625 43.3228 54.625 42.3125V2.8125Z" fill="#439BFF"/>
<path d="M30.25 56.5H1.875C0.839355 56.5 0 57.3394 0 58.375V60.25C0 62.3208 1.80371 64 3.875 64H32.1729C30.9829 62.4282 30.25 60.4937 30.25 58.375V56.5Z" fill="#439BFF"/>
</svg>
