<svg width="17" height="17" viewBox="0 0 17 17" fill="none" xmlns="http://www.w3.org/2000/svg">
<path d="M5.2128 14.6373C6.07863 13.6259 6.60477 12.5966 5.73894 11.598L5.21791 11.0003C4.83735 10.5636 3.06481 9.75137 6.67884 6.6124C10.2852 3.47343 10.8471 5.34046 11.2226 5.77977L11.7462 6.37998C12.612 7.37352 13.7026 6.99807 14.8264 6.28037L15.5058 5.84873C16.6245 5.12848 17.36 4.34437 16.4968 3.34572L16.0242 2.80936C15.705 2.36751 14.6604 1.13644 12.6784 0.83761C10.3005 0.477484 7.57533 1.6115 4.58705 4.21156C1.59621 6.80651 0.0944081 9.34783 0.119949 11.7563C0.142936 13.7562 1.21565 14.9643 1.60643 15.3423L2.07893 15.8837C2.94221 16.8773 3.82337 16.2592 4.68921 15.2478L5.2128 14.6373Z" fill="white"/>
</svg>
