<svg width="65" height="65" viewBox="0 0 65 65" fill="none" xmlns="http://www.w3.org/2000/svg">
<path d="M0 32.5C0 14.5507 14.5507 0 32.5 0C50.4493 0 65 14.5507 65 32.5C65 50.4493 50.4493 65 32.5 65C14.5507 65 0 50.4493 0 32.5Z" fill="#091220"/>
<g clip-path="url(#clip0)">
<path d="M44.4875 40.1891C41 39.7328 37.4375 36.7667 33.6875 31.2909C33.8 31.1768 33.95 31.0627 34.2125 30.9866C36.575 29.6177 37.775 27.9825 37.775 26.0432C37.775 24.5981 37.2125 23.4954 36.0875 22.7729C35.1875 22.1644 33.95 21.8602 32.375 21.7842L25.25 21.8602C27.6125 21.9743 29.15 25.3967 29.3 25.739L29.3375 23.5714C29.3375 23.4573 29.3375 23.3433 29.375 23.2672C29.45 22.925 30.05 22.7729 31.1375 22.7729C32.4875 22.7729 33.4625 23.0391 34.1 23.6095C34.7375 24.1418 35.0375 25.0545 35.0375 26.2713C35.0375 27.4882 34.6625 28.5149 33.95 29.3515C33.2 30.1881 32.0375 30.6064 30.4625 30.6064H29.375C30.0875 30.6824 30.7625 31.2909 31.175 31.7472C31.175 31.7472 31.175 31.7852 31.2125 31.7852C31.4375 32.0514 31.5875 32.2035 31.5875 32.2035C32.7875 33.6865 34.2875 35.5879 36.05 37.8695C37.4375 39.5427 39.0875 40.3412 40.925 40.3412L45.5 40.3032L44.4875 40.1891ZM30.8 19.4265H36.2L37.5125 14.7492C37.5125 14.7492 35.675 17.8674 34.8125 18.3618C33.95 18.8561 32.9 19.0462 31.8875 16.1182L30.8 13L29.75 16.1182C28.7375 19.0462 27.725 18.8561 26.825 18.3618C25.9625 17.8674 24.125 14.7492 24.125 14.7492L25.4375 19.4265H30.8ZM13.25 49.9239H11V45.5128H11.4875V49.4676H13.25V49.9239ZM17.4875 47.7944C17.4875 47.0719 17.675 46.5396 18.05 46.1213C18.425 45.703 18.95 45.4748 19.5875 45.4748C20.1875 45.4748 20.675 45.703 21.05 46.0832C21.425 46.5015 21.6125 47.0339 21.6125 47.6804C21.6125 48.4029 21.425 48.9352 21.05 49.3916C20.675 49.8099 20.1875 50.038 19.55 50.038C18.95 50.038 18.4625 49.8099 18.0875 49.4296C17.675 48.9733 17.4875 48.4409 17.4875 47.7944ZM18.0125 47.7564C18.0125 48.2888 18.1625 48.7451 18.425 49.0493C18.6875 49.3916 19.0625 49.5437 19.5125 49.5437C20 49.5437 20.375 49.3916 20.675 49.0493C20.9375 48.7071 21.0875 48.2888 21.0875 47.7184C21.0875 47.148 20.9375 46.6917 20.675 46.3494C20.4125 46.0072 20.0375 45.8551 19.55 45.8551C19.0625 45.8551 18.6875 46.0452 18.425 46.3875C18.125 46.7677 18.0125 47.224 18.0125 47.7564ZM30.05 49.9239H29.45L27.1625 46.3875C27.125 46.3114 27.0875 46.2354 27.0125 46.1213C27.0125 46.2354 27.05 46.4255 27.05 46.7297V49.962H26.5625V45.5128H27.2L29.4125 49.0113C29.525 49.1634 29.5625 49.2775 29.6 49.3155C29.5625 49.1634 29.5625 48.9353 29.5625 48.6691V45.5128H30.05V49.9239ZM35.3 49.9239V45.5128H36.4625C38 45.5128 38.75 46.2354 38.75 47.6423C38.75 48.3268 38.525 48.8592 38.075 49.2775C37.625 49.6958 37.0625 49.8859 36.3875 49.8859H35.3V49.9239ZM35.75 45.9692V49.4676H36.425C36.9875 49.4676 37.4375 49.3155 37.775 49.0113C38.1125 48.7071 38.2625 48.2508 38.2625 47.6804C38.2625 46.5396 37.6625 45.9692 36.4625 45.9692H35.75ZM43.4375 47.7944C43.4375 47.0719 43.625 46.5396 44 46.1213C44.375 45.703 44.9 45.4748 45.5375 45.4748C46.1375 45.4748 46.625 45.703 47 46.0832C47.375 46.5015 47.5625 47.0339 47.5625 47.6804C47.5625 48.4029 47.375 48.9352 47 49.3916C46.625 49.8099 46.1375 50.038 45.5 50.038C44.9 50.038 44.375 49.8099 44.0375 49.4296C43.625 48.9733 43.4375 48.4409 43.4375 47.7944ZM43.9625 47.7564C43.9625 48.2888 44.1125 48.7451 44.375 49.0493C44.6375 49.3916 45.0125 49.5437 45.5 49.5437C45.9875 49.5437 46.3625 49.3916 46.6625 49.0493C46.925 48.7071 47.075 48.2888 47.075 47.7184C47.075 47.148 46.925 46.6917 46.6625 46.3494C46.4 46.0072 46.025 45.8551 45.5375 45.8551C45.05 45.8551 44.675 46.0452 44.4125 46.3875C44.075 46.7677 43.9625 47.224 43.9625 47.7564ZM56 49.9239H55.4L53.1125 46.3875C53.075 46.3114 53.0375 46.2354 52.9625 46.1213C52.9625 46.2354 53 46.4255 53 46.7297V49.962H52.5125V45.5128H53.15L55.3625 49.0113C55.475 49.1634 55.5125 49.2775 55.55 49.3155C55.5125 49.1634 55.5125 48.9353 55.5125 48.6691V45.5128H56V49.9239Z" fill="white"/>
<path d="M13.25 49.924H11V45.5129H11.4875V49.4677H13.25V49.924ZM17.4875 47.7945C17.4875 47.072 17.675 46.5396 18.05 46.1213C18.425 45.703 18.95 45.4749 19.5875 45.4749C20.1875 45.4749 20.675 45.703 21.05 46.0833C21.425 46.5016 21.6125 47.0339 21.6125 47.6804C21.6125 48.4029 21.425 48.9353 21.05 49.3916C20.675 49.8099 20.1875 50.0381 19.55 50.0381C18.95 50.0381 18.4625 49.8099 18.0875 49.4296C17.675 48.9733 17.4875 48.4409 17.4875 47.7945ZM18.0125 47.7565C18.0125 48.2888 18.1625 48.7452 18.425 49.0494C18.6875 49.3916 19.0625 49.5437 19.5125 49.5437C20 49.5437 20.375 49.3916 20.675 49.0494C20.9375 48.7071 21.0875 48.2888 21.0875 47.7184C21.0875 47.148 20.9375 46.6917 20.675 46.3495C20.4125 46.0072 20.0375 45.8551 19.55 45.8551C19.0625 45.8551 18.6875 46.0453 18.425 46.3875C18.125 46.7678 18.0125 47.2241 18.0125 47.7565ZM30.05 49.924H29.45L27.1625 46.3875C27.125 46.3114 27.0875 46.2354 27.0125 46.1213C27.0125 46.2354 27.05 46.4255 27.05 46.7297V49.962H26.5625V45.5129H27.2L29.4125 49.0113C29.525 49.1634 29.5625 49.2775 29.6 49.3156C29.5625 49.1634 29.5625 48.9353 29.5625 48.6691V45.5129H30.05V49.924ZM35.3 49.924V45.5129H36.4625C38 45.5129 38.75 46.2354 38.75 47.6424C38.75 48.3269 38.525 48.8592 38.075 49.2775C37.625 49.6958 37.0625 49.886 36.3875 49.886H35.3V49.924ZM35.75 45.9692V49.4677H36.425C36.9875 49.4677 37.4375 49.3155 37.775 49.0113C38.1125 48.7071 38.2625 48.2508 38.2625 47.6804C38.2625 46.5396 37.6625 45.9692 36.4625 45.9692H35.75ZM43.4375 47.7945C43.4375 47.072 43.625 46.5396 44 46.1213C44.375 45.703 44.9 45.4749 45.5375 45.4749C46.1375 45.4749 46.625 45.703 47 46.0833C47.375 46.5016 47.5625 47.0339 47.5625 47.6804C47.5625 48.4029 47.375 48.9353 47 49.3916C46.625 49.8099 46.1375 50.0381 45.5 50.0381C44.9 50.0381 44.375 49.8099 44.0375 49.4296C43.625 48.9733 43.4375 48.4409 43.4375 47.7945ZM43.9625 47.7565C43.9625 48.2888 44.1125 48.7452 44.375 49.0494C44.6375 49.3916 45.0125 49.5437 45.5 49.5437C45.9875 49.5437 46.3625 49.3916 46.6625 49.0494C46.925 48.7071 47.075 48.2888 47.075 47.7184C47.075 47.148 46.925 46.6917 46.6625 46.3495C46.4 46.0072 46.025 45.8551 45.5375 45.8551C45.05 45.8551 44.675 46.0453 44.4125 46.3875C44.075 46.7678 43.9625 47.2241 43.9625 47.7565ZM56 49.924H55.4L53.1125 46.3875C53.075 46.3114 53.0375 46.2354 52.9625 46.1213C52.9625 46.2354 53 46.4255 53 46.7297V49.962H52.5125V45.5129H53.15L55.3625 49.0113C55.475 49.1634 55.5125 49.2775 55.55 49.3156C55.5125 49.1634 55.5125 48.9353 55.5125 48.6691V45.5129H56V49.924Z" fill="white"/>
</g>
<defs>
<clipPath id="clip0">
<rect width="45" height="37" fill="white" transform="translate(11 13)"/>
</clipPath>
</defs>
</svg>
