<svg width="84" height="84" viewBox="0 0 84 84" fill="none" xmlns="http://www.w3.org/2000/svg">
<g clip-path="url(#clip0)">
<path d="M14.7027 50.6587L22.2816 58.2376L31.6005 48.9187L17.6219 34.9395L14.7021 37.8586C11.1734 41.3879 11.1734 47.1294 14.7027 50.6587Z" fill="white"/>
<path d="M49.0599 66.3786L35.0806 52.3987L25.7617 61.7182L33.3413 69.2971C35.1056 71.0614 37.4236 71.9439 39.741 71.9439C42.059 71.9439 44.3764 71.0621 46.1407 69.2978L49.0599 66.3786Z" fill="white"/>
<path d="M82.7864 3.14474C82.5909 2.17062 81.8295 1.40863 80.8554 1.21381C80.3722 1.11703 74.621 0 67.6586 0C60.1656 0 51.2684 1.29391 46.0152 6.54648L21.1021 31.4596L35.0807 45.4389L42.6615 37.8581C43.6222 36.8974 45.1808 36.8974 46.1415 37.8581C47.1028 38.8187 47.1028 40.3773 46.1415 41.338L38.5613 48.9188L52.5399 62.8981L77.453 37.985C87.5871 27.8503 82.9869 4.14899 82.7864 3.14474ZM67.2023 29.5973C65.4925 31.3071 63.22 32.2485 60.8026 32.2485C58.3853 32.2485 56.1121 31.3071 54.4023 29.5979C50.8743 26.068 50.8743 20.3264 54.4023 16.7978C56.1121 15.0886 58.3846 14.1472 60.8026 14.1472C63.2206 14.1472 65.4931 15.0886 67.2023 16.7985C70.7303 20.3271 70.7303 26.0686 67.2023 29.5973Z" fill="white"/>
<path d="M40.8618 76.8177L47.3205 83.2764C47.7819 83.7378 48.4081 83.9967 49.0605 83.9967C49.7129 83.9967 50.339 83.7378 50.8004 83.2764C54.8052 79.271 57.7148 74.526 59.4483 69.1721C60.2654 66.6478 60.7935 64.0228 61.0274 61.3708L49.6212 72.7777C47.2506 75.1483 44.1732 76.5575 40.8618 76.8177Z" fill="white"/>
<path d="M7.18179 43.1377C7.44263 39.8263 8.8519 36.7495 11.2225 34.3789L22.6351 22.9663C14.357 23.6866 6.66974 27.2544 0.723755 33.1991C0.262329 33.6611 0.00341797 34.2866 0.00341797 34.9397C0.00341797 35.5921 0.262329 36.2182 0.723755 36.6796L7.18179 43.1377Z" fill="white"/>
<path d="M11.2223 54.1388C9.31447 52.2309 8.03017 49.8642 7.46492 47.2866L1.09853 51.5311C0.485218 51.94 0.0872384 52.602 0.0148202 53.3358C-0.0575979 54.0696 0.202595 54.797 0.723621 55.3186L5.50707 60.1021L0.720417 64.8881C-0.240246 65.8494 -0.240246 67.4073 0.721058 68.3687C1.20171 68.8493 1.83104 69.0896 2.46102 69.0896C3.09099 69.0896 3.72033 68.8493 4.20098 68.3687L8.98699 63.5826L12.9623 67.5573L0.720417 79.7992C-0.240246 80.7599 -0.240246 82.3185 0.721058 83.2791C1.20171 83.7598 1.83104 84.0001 2.46102 84.0001C3.09099 84.0001 3.72033 83.7598 4.20098 83.2791L16.4422 71.0379L20.4175 75.0132L15.6315 79.7986C14.6709 80.7599 14.6709 82.3178 15.6315 83.2791C16.1122 83.7598 16.7421 83.9995 17.3715 83.9995C18.0015 83.9995 18.6314 83.7591 19.1114 83.2791L23.8974 78.4931L28.6809 83.2766C29.1442 83.7405 29.7717 83.9975 30.4209 83.9975C30.5016 83.9975 30.5824 83.9937 30.6637 83.9854C31.3975 83.9129 32.0596 83.515 32.4684 82.9016L36.7129 76.5352C34.136 75.9694 31.7692 74.6857 29.8607 72.7778L11.2223 54.1388Z" fill="white"/>
</g>
<defs>
<clipPath id="clip0">
<rect width="84" height="84" fill="white"/>
</clipPath>
</defs>
</svg>
