<svg width="64" height="64" viewBox="0 0 64 64" fill="none" xmlns="http://www.w3.org/2000/svg">
<path d="M20.3848 48.7871C13.3208 48.9854 7.625 55.0137 7.625 62.125C7.625 63.1611 8.46387 64 9.5 64H28.8267L20.3848 48.7871Z" fill="#439BFF"/>
<path d="M32 52.5C29.9863 52.5 28.061 52.1538 26.251 51.5518L32 61.9932L37.7559 51.5396C35.9097 52.1621 33.9727 52.5 32 52.5Z" fill="#439BFF"/>
<path d="M43.6138 48.7871L35.1733 64H54.5C55.5361 64 56.375 63.1611 56.375 62.125C56.375 55.0132 50.6787 48.9849 43.6138 48.7871Z" fill="#439BFF"/>
<path d="M32 0C18.5601 0 7.625 10.9351 7.625 24.375V31.875C7.625 34.9814 10.1436 37.5 13.25 37.5H13.6289C13.3818 36.2881 13.25 35.0342 13.25 33.75V26.25C12.5889 26.25 11.9644 26.3848 11.375 26.5942V24.375C11.375 13.0024 20.6274 3.75 32 3.75C43.3726 3.75 52.625 13.0024 52.625 24.375V26.5942C52.0356 26.3848 51.4111 26.25 50.75 26.25V33.75C50.75 35.0342 50.6182 36.2881 50.3711 37.5H50.75C51.4111 37.5 52.0356 37.3652 52.625 37.1558V39.375C52.625 40.4248 51.8003 41.25 50.75 41.25H44.9751C44.1499 42.6748 43.1372 43.9497 41.8999 45H50.75C53.8628 45 56.375 42.4873 56.375 39.375C56.375 38.9912 56.375 23.8369 56.375 24.375C56.375 10.9351 45.4399 0 32 0Z" fill="#439BFF"/>
<path d="M37.625 43.125C37.625 42.0747 38.4497 41.25 39.5 41.25H44.9751C46.25 39.0376 47 36.4873 47 33.75V26.25H38C35.7124 26.25 33.5747 25.3501 32 23.7749C30.3877 25.3501 28.25 26.25 26 26.25H17V33.75C17 42.0376 23.7124 48.75 32 48.75C35.7876 48.75 39.2373 47.3252 41.8999 45H39.5C38.4497 45 37.625 44.1748 37.625 43.125ZM32 41.25C28.8872 41.25 26.375 38.7373 26.375 35.625C26.375 34.5747 27.1997 33.75 28.25 33.75C29.3003 33.75 30.125 34.5747 30.125 35.625C30.125 36.6748 30.9497 37.5 32 37.5C33.0503 37.5 33.875 36.6748 33.875 35.625C33.875 34.5747 34.6997 33.75 35.75 33.75C36.8003 33.75 37.625 34.5747 37.625 35.625C37.625 38.7373 35.1128 41.25 32 41.25Z" fill="#439BFF"/>
<path d="M30.2749 19.8374C30.6123 19.2002 31.2876 18.7876 32 18.7876C32.7124 18.7876 33.3501 19.1626 33.6875 19.7998C34.5122 21.4873 36.1626 22.5 38 22.5H47C47 15.2832 41.7949 8.02832 32 7.5C23.7012 7.5 17 14.2358 17 22.5H26C27.7998 22.5 29.4878 21.4497 30.2749 19.8374Z" fill="#439BFF"/>
</svg>
