<svg width="64" height="64" viewBox="0 0 64 64" fill="none" xmlns="http://www.w3.org/2000/svg">
<g clip-path="url(#clip0)">
<path d="M14.9562 12.9768L40.47 6.01266L39.1189 3.28161C38.2349 1.50643 36.0788 0.773359 34.3036 1.65736L11.4634 12.9768H14.9562Z" fill="#439BFF"/>
<path d="M48.3899 6.21387C48.0738 6.21387 47.7575 6.25699 47.4412 6.34323L41.4474 7.98186L23.1421 12.9768H43.9196H52.9752L51.854 8.86586C51.4228 7.26316 49.9711 6.21387 48.3899 6.21387Z" fill="#439BFF"/>
<path d="M56.7196 15.4923H55.9003H54.7863H53.6723H45.1701H13.9284H9.83178H6.38203H5.74239H3.60067C2.46513 15.4923 1.45177 16.017 0.790567 16.8435C0.488714 17.2244 0.258731 17.6628 0.129366 18.1443C0.0503088 18.4462 0 18.7624 0 19.0858V19.517V23.6136V59.1244C0 61.1081 1.60988 62.7179 3.59349 62.7179H56.7124C58.6961 62.7179 60.3059 61.1081 60.3059 59.1244V49.0986H38.9821C35.6115 49.0986 32.8732 46.3604 32.8732 42.9897V39.698V38.5841V37.4701V34.9978C32.8732 33.3448 33.5343 31.8427 34.6053 30.7431C35.554 29.7656 36.8261 29.1044 38.2491 28.9391C38.4862 28.9105 38.7306 28.896 38.975 28.896H57.3161H58.4301H59.5441H60.3059V19.0858C60.3131 17.1022 58.7032 15.4923 56.7196 15.4923Z" fill="#439BFF"/>
<path d="M62.8286 32.3314C62.4692 32.0008 62.0452 31.7493 61.5709 31.584C61.2043 31.4619 60.8162 31.39 60.4066 31.39H60.3131H60.2413H59.1273H55.1098H38.9822C36.9985 31.39 35.3887 32.9998 35.3887 34.9835V36.773V37.887V39.0009V42.9825C35.3887 44.9661 36.9985 46.576 38.9822 46.576H60.3131H60.4066C60.8162 46.576 61.2043 46.5041 61.5709 46.382C62.0452 46.2239 62.4692 45.9651 62.8286 45.6345C63.5473 44.9805 64.0001 44.0318 64.0001 42.9826V34.9835C64.0001 33.9341 63.5473 32.9854 62.8286 32.3314ZM46.4854 39.6981C46.4854 40.6899 45.6804 41.4948 44.6886 41.4948H43.4956C42.5038 41.4948 41.6988 40.6899 41.6988 39.6981V38.505C41.6988 37.9301 41.9648 37.4197 42.3888 37.0963C42.6978 36.8592 43.0788 36.7083 43.4956 36.7083H43.7975H44.6886C45.6804 36.7083 46.4854 37.5132 46.4854 38.505V39.6981Z" fill="#439BFF"/>
</g>
<defs>
<clipPath id="clip0">
<rect width="64" height="64" fill="white"/>
</clipPath>
</defs>
</svg>
